<svg width="24" height="24" viewBox="0 0 24 24" fill="none" xmlns="http://www.w3.org/2000/svg">
<path d="M11.5516 3.40849C11.7351 3.03687 12.265 3.03687 12.4484 3.40849L14.6757 7.92145C14.7485 8.06902 14.8893 8.1713 15.0521 8.19497L20.0325 8.91866C20.4426 8.97825 20.6063 9.48223 20.3096 9.7715L16.7058 13.2843C16.5879 13.3992 16.5341 13.5647 16.562 13.7269L17.4127 18.6871C17.4828 19.0956 17.0541 19.4071 16.6872 19.2142L12.2327 16.8723C12.087 16.7957 11.913 16.7957 11.7673 16.8723L7.31279 19.2142C6.94598 19.4071 6.51726 19.0956 6.58731 18.6871L7.43806 13.7269C7.46588 13.5647 7.4121 13.3992 7.29426 13.2843L3.69045 9.7715C3.39369 9.48223 3.55745 8.97825 3.96756 8.91866L8.9479 8.19497C9.11075 8.1713 9.25154 8.06902 9.32437 7.92145L11.5516 3.40849Z" fill="white"/>
</svg>
