<svg width="24" height="24" viewBox="0 0 24 24" fill="none" xmlns="http://www.w3.org/2000/svg">
<path fill-rule="evenodd" clip-rule="evenodd" d="M13 5.5H11C9.52925 5.5 8.62738 5.50425 7.97468 5.592C7.40099 5.66913 7.3052 5.77883 7.29383 5.79185L7.29289 5.79289L7.29185 5.79383C7.27883 5.8052 7.16913 5.90099 7.092 6.47468C7.00425 7.12738 7 8.02925 7 9.5V14.5C7 15.9708 7.00425 16.8726 7.092 17.5253C7.16913 18.099 7.27884 18.1948 7.29185 18.2062L7.29289 18.2071L7.29383 18.2082C7.3052 18.2212 7.40098 18.3309 7.97468 18.408C8.62738 18.4958 9.52925 18.5 11 18.5H13C14.4708 18.5 15.3726 18.4958 16.0253 18.408C16.599 18.3309 16.6948 18.2212 16.7062 18.2082L16.7071 18.2071L16.7082 18.2062C16.7212 18.1948 16.8309 18.099 16.908 17.5253C16.9958 16.8726 17 15.9708 17 14.5V9.5C17 8.02925 16.9958 7.12738 16.908 6.47468C16.8309 5.90098 16.7212 5.8052 16.7082 5.79383L16.7071 5.79289L16.7062 5.79185C16.6948 5.77883 16.599 5.66913 16.0253 5.592C15.3726 5.50425 14.4708 5.5 13 5.5ZM5.87868 4.37868C5 5.25736 5 6.67157 5 9.5V14.5C5 17.3284 5 18.7426 5.87868 19.6213C6.75736 20.5 8.17157 20.5 11 20.5H13C15.8284 20.5 17.2426 20.5 18.1213 19.6213C19 18.7426 19 17.3284 19 14.5V9.5C19 6.67157 19 5.25736 18.1213 4.37868C17.2426 3.5 15.8284 3.5 13 3.5H11C8.17157 3.5 6.75736 3.5 5.87868 4.37868Z" fill="white"/>
<path fill-rule="evenodd" clip-rule="evenodd" d="M15 9.5H9V7.5H15V9.5ZM15 13H9V11H15V13ZM15 16.5H9V14.5H15V16.5Z" fill="white"/>
</svg>
