<svg width="24" height="24" viewBox="0 0 24 24" fill="none" xmlns="http://www.w3.org/2000/svg">
<path d="M12 3C13.5856 3 14.9248 4.05426 15.3551 5.5H8.64498C9.07526 4.05426 10.4145 3 12 3Z" fill="white"/>
<path d="M3 12C3 10.4145 4.05426 9.07521 5.5 8.64494V15.3551C4.05426 14.9248 3 13.5855 3 12Z" fill="white"/>
<path d="M12 21C10.4145 21 9.07526 19.9457 8.64498 18.5H15.3551C14.9248 19.9457 13.5856 21 12 21Z" fill="white"/>
<path d="M21 12C21 13.5855 19.9458 14.9248 18.5 15.3551V8.64493C19.9458 9.07519 21 10.4145 21 12Z" fill="white"/>
<path d="M12 17C14.7614 17 17 14.7614 17 12C17 9.23858 14.7614 7 12 7C9.23858 7 7 9.23858 7 12C7 14.7614 9.23858 17 12 17Z" fill="white"/>
</svg>
