<svg width="24" height="24" viewBox="0 0 24 24" fill="none" xmlns="http://www.w3.org/2000/svg">
<path d="M9.36718 4.76565L10 3.5H14L14.6328 4.76565C17.3735 5.0652 18 5.31272 18 6.5V7H6V6.5C6 5.31272 6.6265 5.0652 9.36718 4.76565Z" fill="white"/>
<path fill-rule="evenodd" clip-rule="evenodd" d="M7 8.5H17V15C17 16.8692 17 17.8038 16.5981 18.5C16.3348 18.9561 15.9561 19.3348 15.5 19.5981C14.8038 20 13.8692 20 12 20C10.1308 20 9.19615 20 8.5 19.5981C8.04394 19.3348 7.66523 18.9561 7.40192 18.5C7 17.8038 7 16.8692 7 15V8.5ZM9 15V10.5H15V15C15 15.9714 14.9981 16.5663 14.9579 17.0094C14.9392 17.2157 14.9158 17.3392 14.8963 17.4132C14.8792 17.4784 14.8667 17.4989 14.866 17.5C14.7783 17.652 14.652 17.7783 14.5 17.866C14.4989 17.8667 14.4784 17.8792 14.4132 17.8963C14.3392 17.9158 14.2157 17.9392 14.0094 17.9579C13.5663 17.9981 12.9714 18 12 18C11.0286 18 10.4337 17.9981 9.99062 17.9579C9.78431 17.9392 9.66084 17.9158 9.58681 17.8963C9.52165 17.8792 9.50111 17.8667 9.50004 17.8661C9.34802 17.7783 9.22174 17.652 9.13397 17.5C9.13333 17.4989 9.12083 17.4784 9.10368 17.4132C9.08419 17.3392 9.06077 17.2157 9.04208 17.0094C9.00192 16.5663 9 15.9714 9 15Z" fill="white"/>
</svg>
