<svg width="24" height="24" viewBox="0 0 24 24" fill="none" xmlns="http://www.w3.org/2000/svg">
<path fill-rule="evenodd" clip-rule="evenodd" d="M9.32437 7.92145C9.25154 8.06902 9.11075 8.17131 8.9479 8.19497L3.96756 8.91866C3.55745 8.97825 3.39369 9.48223 3.69045 9.7715L7.29426 13.2843C7.4121 13.3992 7.46588 13.5647 7.43806 13.7269L6.58731 18.6871C6.51726 19.0956 6.94598 19.4071 7.31279 19.2142L11.7673 16.8723C11.913 16.7957 12.087 16.7957 12.2327 16.8723L16.6872 19.2142C17.0541 19.4071 17.4828 19.0956 17.4127 18.6871L16.562 13.7269C16.5341 13.5647 16.5879 13.3992 16.7058 13.2843L20.3096 9.7715C20.6063 9.48223 20.4426 8.97825 20.0325 8.91866L15.0521 8.19497C14.8893 8.17131 14.7485 8.06902 14.6757 7.92145L12.4484 3.40849C12.265 3.03687 11.7351 3.03687 11.5516 3.40849L9.32437 7.92145ZM12 7.0191L11.1178 8.80658C10.7537 9.54444 10.0498 10.0559 9.2355 10.1742L7.2629 10.4608L8.69028 11.8522C9.2795 12.4265 9.54837 13.254 9.40928 14.065L9.07232 16.0296L10.8367 15.1021C11.565 14.7192 12.4351 14.7192 13.1634 15.1021L14.9277 16.0296L14.5908 14.065C14.4517 13.254 14.7205 12.4265 15.3097 11.8522L16.7371 10.4608L14.7645 10.1742C13.9503 10.0559 13.2463 9.54444 12.8822 8.80658L12 7.0191Z" fill="white"/>
</svg>
