<svg width="24" height="24" viewBox="0 0 24 24" fill="none" xmlns="http://www.w3.org/2000/svg">
<path d="M15.5 10.5C15.5 11.6046 14.6046 12.5 13.5 12.5C12.3954 12.5 11.5 11.6046 11.5 10.5C11.5 9.39543 12.3954 8.5 13.5 8.5C14.6046 8.5 15.5 9.39543 15.5 10.5Z" fill="white"/>
<path fill-rule="evenodd" clip-rule="evenodd" d="M6.43934 5.93934C6 6.37868 6 7.08579 6 8.5V12.5C6 13.9142 6 14.6213 6.43934 15.0607C6.87868 15.5 7.58579 15.5 9 15.5H18C19.4142 15.5 20.1213 15.5 20.5607 15.0607C21 14.6213 21 13.9142 21 12.5V8.5C21 7.08579 21 6.37868 20.5607 5.93934C20.1213 5.5 19.4142 5.5 18 5.5H9C7.58579 5.5 6.87868 5.5 6.43934 5.93934ZM17.5 7L9.5 7C9.5 8.10457 8.60457 9 7.5 9V12C8.60457 12 9.5 12.8954 9.5 14H17.5C17.5 12.8954 18.3954 12 19.5 12V9C18.3954 9 17.5 8.10457 17.5 7Z" fill="white"/>
<path d="M3 14.5V12.5C3 10.6144 3 9.67157 3.58579 9.08579C3.82059 8.85098 4.11275 8.7103 4.5 8.626V14.5C4.5 14.6794 4.50011 14.8456 4.50062 15C5.6047 15.0003 6.49966 15.8953 6.5 16.9994C6.65443 16.9999 6.82063 17 7 17H17.874C17.7897 17.3872 17.649 17.6794 17.4142 17.9142C16.8284 18.5 15.8856 18.5 14 18.5H7C5.11438 18.5 4.17157 18.5 3.58579 17.9142C3 17.3284 3 16.3856 3 14.5Z" fill="white"/>
</svg>
