<svg width="24" height="24" viewBox="0 0 24 24" fill="none" xmlns="http://www.w3.org/2000/svg">
<path fill-rule="evenodd" clip-rule="evenodd" d="M5.10355 19.1036L19.1036 5.10355L18.3964 4.39645L15.9095 6.88334C14.7172 6.31588 13.3936 6 12 6C8.10439 6 4.75644 8.46819 3.29048 12C3.99821 13.7051 5.14457 15.1622 6.57943 16.2135L4.39645 18.3964L5.10355 19.1036ZM8.99591 13.797C8.68102 13.2717 8.5 12.657 8.5 12C8.5 10.067 10.067 8.5 12 8.5C12.657 8.5 13.2717 8.68102 13.797 8.99591L13.0584 9.73446C12.737 9.58403 12.3783 9.5 12 9.5C10.6193 9.5 9.5 10.6193 9.5 12C9.5 12.3783 9.58403 12.737 9.73446 13.0584L8.99591 13.797Z" fill="white"/>
<path d="M14.2655 10.9416L10.9416 14.2655C11.263 14.416 11.6217 14.5 12 14.5C13.3807 14.5 14.5 13.3807 14.5 12C14.5 11.6217 14.416 11.263 14.2655 10.9416Z" fill="white"/>
<path d="M12 15.5C11.343 15.5 10.7283 15.319 10.203 15.0041L8.09045 17.1167C9.28281 17.6841 10.6064 18 12 18C15.8956 18 19.2436 15.5318 20.7095 12C20.0018 10.2949 18.8554 8.83777 17.4206 7.78654L15.0041 10.203C15.319 10.7283 15.5 11.343 15.5 12C15.5 13.933 13.933 15.5 12 15.5Z" fill="white"/>
</svg>
