<svg width="24" height="24" viewBox="0 0 24 24" fill="none" xmlns="http://www.w3.org/2000/svg">
<path fill-rule="evenodd" clip-rule="evenodd" d="M9 12C10.5855 12 11.9248 10.9457 12.3551 9.5H20V7.5H12.3551C11.9248 6.05426 10.5855 5 9 5C7.41449 5 6.07521 6.05426 5.64494 7.5H4V9.5H5.64494C6.07521 10.9457 7.41449 12 9 12ZM9 10C9.82843 10 10.5 9.32843 10.5 8.5C10.5 7.67157 9.82843 7 9 7C8.17157 7 7.5 7.67157 7.5 8.5C7.5 9.32843 8.17157 10 9 10Z" fill="white"/>
<path fill-rule="evenodd" clip-rule="evenodd" d="M11.6449 16.5H4V14.5H11.6449C12.0752 13.0543 13.4145 12 15 12C16.5855 12 17.9248 13.0543 18.3551 14.5H20V16.5H18.3551C17.9248 17.9457 16.5855 19 15 19C13.4145 19 12.0752 17.9457 11.6449 16.5ZM16.5 15.5C16.5 16.3284 15.8284 17 15 17C14.1716 17 13.5 16.3284 13.5 15.5C13.5 14.6716 14.1716 14 15 14C15.8284 14 16.5 14.6716 16.5 15.5Z" fill="white"/>
</svg>
