<svg width="24" height="24" viewBox="0 0 24 24" fill="none" xmlns="http://www.w3.org/2000/svg">
<path fill-rule="evenodd" clip-rule="evenodd" d="M14.1821 7.5C13.5227 7.17967 12.7823 7 12 7C11.2177 7 10.4773 7.17967 9.81794 7.5C8.80923 7.99003 7.99003 8.80923 7.5 9.81794C7.17967 10.4773 7 11.2177 7 12C7 12.7823 7.17967 13.5227 7.5 14.1821C7.99003 15.1908 8.80923 16.01 9.81794 16.5C10.4773 16.8203 11.2177 17 12 17C12.7823 17 13.5227 16.8203 14.1821 16.5C15.1908 16.01 16.01 15.1908 16.5 14.1821C16.8203 13.5227 17 12.7823 17 12C17 11.2177 16.8203 10.4773 16.5 9.81794C16.01 8.80923 15.1908 7.99003 14.1821 7.5ZM18.5 15.3551C19.3441 15.1039 20.0547 14.5428 20.5 13.8039C20.8174 13.2771 21 12.6599 21 12C21 11.3401 20.8174 10.7229 20.5 10.1961C20.0547 9.45715 19.3441 8.89612 18.5 8.64493V15.3551ZM8.64498 18.5C8.89619 19.3441 9.45725 20.0547 10.1962 20.5C10.723 20.8174 11.3402 21 12 21C12.6599 21 13.2771 20.8174 13.8038 20.5C14.5428 20.0547 15.1039 19.3441 15.3551 18.5H8.64498ZM5.5 8.64494C4.65592 8.89615 3.94529 9.4572 3.5 10.1962C3.18259 10.723 3 11.3402 3 12C3 12.6598 3.18259 13.277 3.5 13.8038C3.94529 14.5428 4.65592 15.1039 5.5 15.3551V8.64494ZM13.8038 3.5C14.5428 3.94529 15.1039 4.65592 15.3551 5.5H8.64498C8.89619 4.65592 9.45725 3.94529 10.1963 3.5C10.723 3.18259 11.3402 3 12 3C12.6599 3 13.2771 3.18259 13.8038 3.5ZM12 15C13.6569 15 15 13.6569 15 12C15 10.3431 13.6569 9 12 9C10.3431 9 9 10.3431 9 12C9 13.6569 10.3431 15 12 15Z" fill="white"/>
</svg>
