<svg width="24" height="24" viewBox="0 0 24 24" fill="none" xmlns="http://www.w3.org/2000/svg">
<path d="M9.5 12C9.5 10.6193 10.6193 9.5 12 9.5C13.3807 9.5 14.5 10.6193 14.5 12C14.5 13.3807 13.3807 14.5 12 14.5C10.6193 14.5 9.5 13.3807 9.5 12Z" fill="white"/>
<path fill-rule="evenodd" clip-rule="evenodd" d="M12 6C8.10439 6 4.75644 8.46819 3.29048 12C4.75644 15.5318 8.10439 18 12 18C15.8956 18 19.2436 15.5318 20.7095 12C19.2436 8.46819 15.8956 6 12 6ZM12 8.5C10.067 8.5 8.5 10.067 8.5 12C8.5 13.933 10.067 15.5 12 15.5C13.933 15.5 15.5 13.933 15.5 12C15.5 10.067 13.933 8.5 12 8.5Z" fill="white"/>
</svg>
