<svg width="24" height="24" viewBox="0 0 24 24" fill="none" xmlns="http://www.w3.org/2000/svg">
<path fill-rule="evenodd" clip-rule="evenodd" d="M5.66916 5.66915C6.12803 5.21028 6.872 5.21028 7.33086 5.66915L12 10.3383L16.6692 5.66915C17.128 5.21028 17.872 5.21028 18.3309 5.66915C18.7897 6.12801 18.7897 6.87198 18.3309 7.33085L13.6617 12L18.3309 16.6691C18.7897 17.128 18.7897 17.872 18.3309 18.3308C17.872 18.7897 17.128 18.7897 16.6692 18.3308L12 13.6617L7.33086 18.3308C6.872 18.7897 6.12803 18.7897 5.66916 18.3308C5.2103 17.872 5.2103 17.128 5.66916 16.6691L10.3383 12L5.66916 7.33085C5.2103 6.87198 5.2103 6.12801 5.66916 5.66915Z" fill="white"/>
</svg>
