<svg width="16" height="16" viewBox="0 0 16 16" fill="none" xmlns="http://www.w3.org/2000/svg">
<path d="M8 2.25C11.1756 2.25 13.75 4.82436 13.75 8C13.75 11.1756 11.1756 13.75 8 13.75C4.82436 13.75 2.25 11.1756 2.25 8C2.25 4.82436 4.82436 2.25 8 2.25ZM8 12.75C10.6233 12.75 12.75 10.6234 12.75 8C12.75 5.37664 10.6234 3.24999 8 3.24999C5.37665 3.24999 3.24999 5.37664 3.24999 8C3.25312 10.6221 5.3782 12.7469 8 12.75ZM8 7.025C8.53848 7.025 8.975 7.46153 8.975 8C8.975 8.53847 8.53847 8.975 8 8.975C7.46152 8.975 7.025 8.53847 7.025 8C7.02557 7.46175 7.4618 7.02557 8 7.025ZM10.0315 10.7385L7.5 8.20699L7.5 4.18H8.49999V7.79299L10.7385 10.0315L10.0315 10.7385Z" fill="white"/>
</svg>
