<svg width="24" height="24" viewBox="0 0 24 24" fill="none" xmlns="http://www.w3.org/2000/svg">
<path fill-rule="evenodd" clip-rule="evenodd" d="M12 3.18292L5.13859 9.06408C4.99609 9.18602 4.81915 9.33743 4.69215 9.48043C4.59884 9.58548 4.17565 10.0689 4.41516 10.7163C4.65468 11.3638 5.29057 11.4554 5.42978 11.4744C5.61928 11.5004 5.85215 11.5002 6.03971 11.5L11 11.5V15H5V17H7.5V20.5H9.5V17H14.6144V20.5H16.6144V17H19V15H13V11.5L17.9602 11.5C18.1478 11.5002 18.3807 11.5004 18.5702 11.4744C18.7094 11.4554 19.3453 11.3638 19.5848 10.7163C19.8243 10.0689 19.4011 9.58548 19.3078 9.48043C19.1808 9.33743 19.0039 9.18603 18.8614 9.06409L12 3.18292ZM12 5.81708L16.2967 9.5H7.70323L12 5.81708Z" fill="white"/>
</svg>
