<svg width="24" height="24" viewBox="0 0 24 24" fill="none" xmlns="http://www.w3.org/2000/svg">
<path fill-rule="evenodd" clip-rule="evenodd" d="M16 7.5C16 9.70914 14.2091 11.5 12 11.5C9.79086 11.5 8 9.70914 8 7.5C8 5.29086 9.79086 3.5 12 3.5C14.2091 3.5 16 5.29086 16 7.5ZM14 7.5C14 8.60457 13.1046 9.5 12 9.5C10.8954 9.5 10 8.60457 10 7.5C10 6.39543 10.8954 5.5 12 5.5C13.1046 5.5 14 6.39543 14 7.5Z" fill="white"/>
<path fill-rule="evenodd" clip-rule="evenodd" d="M12 13C15.171 13 17.8496 15.1085 18.7101 18C18.8987 18.6337 19 19.305 19 20H5C5 19.305 5.10128 18.6337 5.28988 18C6.15043 15.1085 8.82898 13 12 13ZM12 15C14.0503 15 15.8124 16.2341 16.584 18H7.41604C8.1876 16.2341 9.94968 15 12 15Z" fill="white"/>
</svg>
