<svg width="24" height="24" viewBox="0 0 24 24" fill="none" xmlns="http://www.w3.org/2000/svg">
<path d="M15.7071 6.29289L12 2.58578L8.29285 6.29289L9.70706 7.70711L11.1 6.1L11 8V14H13V8L12.9 6.1L14.2928 7.70711L15.7071 6.29289Z" fill="white"/>
<path d="M5.87868 7.87868C6.17848 7.57888 6.54062 7.38137 7 7.25125V14C7 15.4708 7.00425 16.3726 7.092 17.0253C7.16913 17.599 7.27884 17.6948 7.29185 17.7062L7.29289 17.7071L7.29383 17.7082C7.3052 17.7212 7.40098 17.8309 7.97468 17.908C8.62738 17.9958 9.52925 18 11 18H13C14.4708 18 15.3726 17.9958 16.0253 17.908C16.599 17.8309 16.6948 17.7212 16.7062 17.7082L16.7071 17.7071L16.7082 17.7062C16.7212 17.6948 16.8309 17.599 16.908 17.0253C16.9958 16.3726 17 15.4708 17 14V7.25125C17.4594 7.38137 17.8215 7.57888 18.1213 7.87868C19 8.75736 19 10.1716 19 13V14C19 16.8284 19 18.2426 18.1213 19.1213C17.2426 20 15.8284 20 13 20H11C8.17157 20 6.75736 20 5.87868 19.1213C5 18.2426 5 16.8284 5 14V13C5 10.1716 5 8.75736 5.87868 7.87868Z" fill="white"/>
</svg>
