<svg width="24" height="24" viewBox="0 0 24 24" fill="none" xmlns="http://www.w3.org/2000/svg">
<path d="M3.80609 10.5254C3.41164 9.41613 3.21442 8.86152 3.33681 7.91201C3.3624 7.7135 3.43938 7.37224 3.50149 7.18198C3.7986 6.27189 4.37023 5.70026 5.51348 4.55701C6.16575 3.90474 6.49189 3.5786 6.87383 3.55768C6.97099 3.55236 7.0684 3.56125 7.16299 3.58406C7.53484 3.67375 7.79657 4.05352 8.32004 4.81305L10.724 8.30115L8.2526 10.7726C9.37356 12.8882 11.1118 14.6264 13.2274 15.7474L15.6988 13.276L19.1869 15.68C19.9465 16.2034 20.3262 16.4652 20.4159 16.837C20.4387 16.9316 20.4476 17.029 20.4423 17.1262C20.4214 17.5081 20.0953 17.8342 19.443 18.4865C18.2997 19.6298 17.7281 20.2014 16.818 20.4985C16.6278 20.5606 16.2865 20.6376 16.088 20.6632C15.1385 20.7856 14.5839 20.5884 13.4746 20.1939C8.97424 18.5936 5.40644 15.0258 3.80609 10.5254Z" fill="white"/>
</svg>
