<svg width="24" height="24" viewBox="0 0 24 24" fill="none" xmlns="http://www.w3.org/2000/svg">
<path fill-rule="evenodd" clip-rule="evenodd" d="M13.4057 14.8199C12.3777 15.5624 11.115 16 9.75 16C6.29822 16 3.5 13.2018 3.5 9.75C3.5 6.29822 6.29822 3.5 9.75 3.5C13.2018 3.5 16 6.29822 16 9.75C16 11.115 15.5624 12.3777 14.8199 13.4057L19.7071 18.2929C20.0976 18.6834 20.0976 19.3166 19.7071 19.7071C19.3166 20.0976 18.6834 20.0976 18.2929 19.7071L13.4057 14.8199ZM14 9.75C14 12.0972 12.0972 14 9.75 14C7.40279 14 5.5 12.0972 5.5 9.75C5.5 7.40279 7.40279 5.5 9.75 5.5C12.0972 5.5 14 7.40279 14 9.75Z" fill="white"/>
</svg>
