<svg width="235" height="58" viewBox="0 0 235 58" fill="none" xmlns="http://www.w3.org/2000/svg">
<circle cx="20.5" cy="14.5" r="4.5" fill="#233035"/>
<circle cx="33.5" cy="14.5" r="4.5" fill="#233035"/>
<circle cx="46.5" cy="14.5" r="4.5" fill="#233035"/>
<circle cx="20.5" cy="27.5" r="4.5" fill="#233035"/>
<circle cx="33.5" cy="27.5" r="4.5" fill="#233035"/>
<circle cx="46.5" cy="27.5" r="3.5" fill="#D0D757"/>
<path fill-rule="evenodd" clip-rule="evenodd" d="M51 24.6035V29.8965C52.1543 29.57 53 28.5088 53 27.25C53 25.9912 52.1543 24.93 51 24.6035ZM49.1465 32H43.8535C44.18 33.1543 45.2412 34 46.5 34C47.7588 34 48.82 33.1543 49.1465 32ZM42 29.8965V24.6035C40.8457 24.93 40 25.9912 40 27.25C40 28.5088 40.8457 29.57 42 29.8965ZM46.5 21C47.7588 21 48.82 21.8457 49.1465 23H43.8535C44.18 21.8457 45.2412 21 46.5 21Z" fill="#D0D757"/>
<circle cx="20.5" cy="40.5" r="4.5" fill="#233035"/>
<circle cx="33.5" cy="40.5" r="4.5" fill="#233035"/>
<circle cx="46.5" cy="40.5" r="4.5" fill="#233035"/>
<path d="M70.2311 40C69.1005 40 67.9591 40 66.8071 40C65.6551 40 64.5138 40 63.3831 40C63.3191 40 63.2551 39.9893 63.1911 39.968C63.1485 39.9253 63.1058 39.8827 63.0631 39.84C63.0418 39.7973 63.0311 39.7333 63.0311 39.648C63.0311 37.9413 63.0311 36.2453 63.0311 34.56C63.0311 32.8533 63.0311 31.1467 63.0311 29.44C63.0311 27.7333 63.0311 26.0267 63.0311 24.32C63.0311 22.6133 63.0311 20.9173 63.0311 19.232H70.4871L70.2311 19.776C70.2311 20.9493 70.2311 22.1333 70.2311 23.328C70.2311 24.5013 70.2311 25.6853 70.2311 26.88C70.2311 27.9893 70.2311 29.0987 70.2311 30.208C70.2311 31.3173 70.2311 32.4267 70.2311 33.536C70.2311 34.6453 70.2311 35.7547 70.2311 36.864C70.2311 37.44 70.2311 37.9947 70.2311 38.528C70.2311 39.0613 70.2311 39.552 70.2311 40ZM61.4311 17.6H77.4311C77.5165 17.6 77.5805 17.6213 77.6231 17.664C77.6658 17.6853 77.6978 17.7173 77.7191 17.76C77.7618 17.8027 77.7831 17.8667 77.7831 17.952C77.7831 18.4427 77.7831 19.104 77.7831 19.936C77.7831 20.7467 77.7831 21.5573 77.7831 22.368C77.7831 23.1787 77.7831 23.8293 77.7831 24.32H61.7831C61.7191 24.32 61.6551 24.3093 61.5911 24.288C61.5485 24.2453 61.5058 24.2027 61.4631 24.16C61.4418 24.096 61.4311 24.032 61.4311 23.968C61.4311 22.9013 61.4311 21.8347 61.4311 20.768C61.4311 19.7013 61.4311 18.6453 61.4311 17.6ZM66.5511 27.2H75.5111C75.6178 27.2 75.7031 27.232 75.7671 27.296C75.8311 27.36 75.8631 27.4453 75.8631 27.552C75.8631 28.0427 75.8631 28.672 75.8631 29.44C75.8631 30.1867 75.8631 30.944 75.8631 31.712C75.8631 32.48 75.8631 33.1093 75.8631 33.6H66.5831L66.5511 27.2ZM86.3924 25.792H88.0244C88.2377 24.9813 88.5044 24.2987 88.8244 23.744C89.1657 23.1893 89.571 22.7733 90.0404 22.496C90.531 22.2187 91.107 22.08 91.7684 22.08C92.1097 22.08 92.355 22.112 92.5044 22.176C92.675 22.24 92.7924 22.304 92.8564 22.368C92.899 22.4107 92.931 22.464 92.9524 22.528C92.9737 22.5707 92.9844 22.6453 92.9844 22.752C92.9844 22.816 92.9844 23.136 92.9844 23.712C92.9844 24.2667 92.9844 24.9493 92.9844 25.76C92.9844 26.5493 92.9844 27.3387 92.9844 28.128C92.9844 28.9173 92.9844 29.5787 92.9844 30.112H92.3444C91.8964 29.9627 91.4484 29.856 91.0004 29.792C90.5737 29.728 90.147 29.696 89.7204 29.696C89.2724 29.696 88.8457 29.7173 88.4404 29.76C88.035 29.8027 87.6617 29.8773 87.3204 29.984C86.979 30.0907 86.6697 30.2293 86.3924 30.4V25.792ZM87.3844 40C86.8084 40 86.0937 40 85.2404 40C84.387 40 83.5337 40 82.6804 40C81.827 40 81.1124 40 80.5364 40C80.4724 40 80.419 40 80.3764 40C80.3337 39.9787 80.291 39.9573 80.2484 39.936C80.227 39.8933 80.2057 39.8507 80.1844 39.808C80.1844 39.7653 80.1844 39.712 80.1844 39.648C80.1844 39.52 80.1844 39.104 80.1844 38.4C80.1844 37.696 80.1844 36.8213 80.1844 35.776C80.1844 34.7093 80.1844 33.568 80.1844 32.352C80.1844 31.1147 80.1844 29.9093 80.1844 28.736C80.1844 27.5413 80.1844 26.4747 80.1844 25.536C80.1844 24.96 80.1844 24.4053 80.1844 23.872C80.1844 23.3387 80.1844 22.848 80.1844 22.4C80.8244 22.4 81.571 22.4 82.4244 22.4C83.299 22.4 84.1524 22.4 84.9844 22.4C85.8377 22.4 86.5204 22.4 87.0324 22.4C87.1177 22.4 87.1817 22.4213 87.2244 22.464C87.267 22.4853 87.299 22.5173 87.3204 22.56C87.363 22.6027 87.3844 22.6667 87.3844 22.752C87.3844 23.904 87.3844 25.056 87.3844 26.208C87.3844 27.36 87.3844 28.512 87.3844 29.664C87.3844 30.7947 87.3844 31.936 87.3844 33.088C87.3844 34.24 87.3844 35.392 87.3844 36.544C87.3844 37.696 87.3844 38.848 87.3844 40ZM103.15 21.76C104.984 21.76 106.542 22.0693 107.822 22.688C109.102 23.3067 110.072 24.192 110.734 25.344C111.395 26.4747 111.726 27.8507 111.726 29.472V32.608C111.726 32.672 111.704 32.736 111.662 32.8C111.64 32.8427 111.608 32.8853 111.566 32.928C111.523 32.9493 111.459 32.96 111.374 32.96H103.79C103.512 32.96 103.235 32.96 102.958 32.96C102.68 32.96 102.403 32.96 102.126 32.96H100.046V29.76H105.326C105.326 29.696 105.326 29.632 105.326 29.568C105.326 29.504 105.326 29.408 105.326 29.28C105.326 28.9173 105.283 28.6293 105.198 28.416C105.134 28.1813 105.027 27.9893 104.878 27.84C104.728 27.6693 104.536 27.552 104.302 27.488C104.067 27.4027 103.8 27.36 103.502 27.36C102.947 27.36 102.499 27.5307 102.158 27.872C101.816 28.192 101.646 28.6187 101.646 29.152V32.96C101.646 33.2587 101.678 33.5467 101.742 33.824C101.806 34.08 101.923 34.2933 102.094 34.464C102.286 34.656 102.595 34.8053 103.022 34.912C103.448 35.0187 104.152 35.0613 105.134 35.04C105.774 35.04 106.382 35.0187 106.958 34.976C107.534 34.912 108.12 34.816 108.718 34.688C109.315 34.56 109.944 34.4 110.606 34.208H111.246C111.246 35.0613 111.246 35.904 111.246 36.736C111.246 37.568 111.246 38.4107 111.246 39.264C111.246 39.3067 111.235 39.3493 111.214 39.392C111.214 39.4347 111.192 39.4773 111.15 39.52C110.936 39.7333 110.488 39.9253 109.806 40.096C109.144 40.2667 108.344 40.3947 107.406 40.48C106.467 40.5867 105.464 40.64 104.398 40.64C102.798 40.64 101.39 40.4693 100.174 40.128C98.9576 39.808 97.9336 39.328 97.1016 38.688C96.2696 38.0267 95.6403 37.216 95.2136 36.256C94.8083 35.2747 94.6056 34.144 94.6056 32.864V29.536C94.6056 28.384 94.7976 27.3387 95.1816 26.4C95.587 25.44 96.163 24.6187 96.9096 23.936C97.6563 23.232 98.5523 22.6987 99.5976 22.336C100.664 21.952 101.848 21.76 103.15 21.76ZM122.977 21.76C124.812 21.76 126.369 22.0693 127.649 22.688C128.929 23.3067 129.9 24.192 130.561 25.344C131.222 26.4747 131.553 27.8507 131.553 29.472V32.608C131.553 32.672 131.532 32.736 131.489 32.8C131.468 32.8427 131.436 32.8853 131.393 32.928C131.35 32.9493 131.286 32.96 131.201 32.96H123.617C123.34 32.96 123.062 32.96 122.785 32.96C122.508 32.96 122.23 32.96 121.953 32.96H119.873V29.76H125.153C125.153 29.696 125.153 29.632 125.153 29.568C125.153 29.504 125.153 29.408 125.153 29.28C125.153 28.9173 125.11 28.6293 125.025 28.416C124.961 28.1813 124.854 27.9893 124.705 27.84C124.556 27.6693 124.364 27.552 124.129 27.488C123.894 27.4027 123.628 27.36 123.329 27.36C122.774 27.36 122.326 27.5307 121.985 27.872C121.644 28.192 121.473 28.6187 121.473 29.152V32.96C121.473 33.2587 121.505 33.5467 121.569 33.824C121.633 34.08 121.75 34.2933 121.921 34.464C122.113 34.656 122.422 34.8053 122.849 34.912C123.276 35.0187 123.98 35.0613 124.961 35.04C125.601 35.04 126.209 35.0187 126.785 34.976C127.361 34.912 127.948 34.816 128.545 34.688C129.142 34.56 129.772 34.4 130.433 34.208H131.073C131.073 35.0613 131.073 35.904 131.073 36.736C131.073 37.568 131.073 38.4107 131.073 39.264C131.073 39.3067 131.062 39.3493 131.041 39.392C131.041 39.4347 131.02 39.4773 130.977 39.52C130.764 39.7333 130.316 39.9253 129.633 40.096C128.972 40.2667 128.172 40.3947 127.233 40.48C126.294 40.5867 125.292 40.64 124.225 40.64C122.625 40.64 121.217 40.4693 120.001 40.128C118.785 39.808 117.761 39.328 116.929 38.688C116.097 38.0267 115.468 37.216 115.041 36.256C114.636 35.2747 114.433 34.144 114.433 32.864V29.536C114.433 28.384 114.625 27.3387 115.009 26.4C115.414 25.44 115.99 24.6187 116.737 23.936C117.484 23.232 118.38 22.6987 119.425 22.336C120.492 21.952 121.676 21.76 122.977 21.76Z" fill="#233035"/>
<path d="M143.573 16.96C145.599 16.96 147.253 17.1413 148.533 17.504C149.813 17.8667 150.591 18.1867 150.869 18.464C150.954 18.5493 151.007 18.624 151.029 18.688C151.05 18.752 151.061 18.8587 151.061 19.008C151.061 19.6267 151.061 20.2347 151.061 20.832C151.061 21.4293 151.061 22.0373 151.061 22.656C151.061 23.2533 151.061 23.8613 151.061 24.48C150.079 24.48 149.098 24.48 148.117 24.48C147.135 24.48 146.143 24.48 145.141 24.48C145.013 24.48 144.927 24.448 144.885 24.384C144.842 24.2987 144.821 24.2133 144.821 24.128C144.821 24 144.821 23.8613 144.821 23.712C144.821 23.5627 144.821 23.4027 144.821 23.232C144.821 23.04 144.821 22.8587 144.821 22.688C144.821 22.5173 144.821 22.3467 144.821 22.176L145.749 23.392C145.365 23.2427 145.023 23.1467 144.725 23.104C144.447 23.0613 144.127 23.04 143.765 23.04C143.402 23.04 143.05 23.0507 142.709 23.072C142.367 23.0933 142.069 23.1467 141.813 23.232C141.557 23.296 141.354 23.4027 141.205 23.552C141.055 23.7013 140.981 23.904 140.981 24.16V24.48C140.981 24.672 141.013 24.8533 141.077 25.024C141.141 25.1733 141.269 25.3013 141.461 25.408C141.674 25.5147 141.973 25.6107 142.357 25.696L145.621 26.368C146.773 26.6027 147.722 26.88 148.469 27.2C149.215 27.52 149.802 27.9147 150.229 28.384C150.655 28.8533 150.954 29.4187 151.125 30.08C151.295 30.7413 151.381 31.52 151.381 32.416V34.08C151.381 35.552 150.997 36.7787 150.229 37.76C149.461 38.72 148.373 39.4453 146.965 39.936C145.557 40.4053 143.893 40.64 141.973 40.64C140.735 40.64 139.573 40.544 138.485 40.352C137.397 40.1813 136.469 39.9573 135.701 39.68C134.954 39.4027 134.453 39.1467 134.197 38.912C134.175 38.8693 134.154 38.8267 134.133 38.784C134.111 38.7413 134.101 38.6987 134.101 38.656C134.101 37.952 134.101 37.2587 134.101 36.576C134.101 35.872 134.101 35.1787 134.101 34.496C134.101 33.792 134.101 33.0987 134.101 32.416H134.741C135.829 33.0133 136.959 33.472 138.133 33.792C139.327 34.0907 140.671 34.24 142.165 34.24C143.231 34.24 143.914 34.1333 144.213 33.92C144.511 33.7067 144.661 33.4613 144.661 33.184V32.832C144.661 32.6827 144.618 32.544 144.533 32.416C144.469 32.2667 144.33 32.1387 144.117 32.032C143.925 31.904 143.647 31.808 143.285 31.744L140.373 31.104C139.007 30.8053 137.909 30.464 137.077 30.08C136.266 29.6747 135.658 29.216 135.253 28.704C134.847 28.192 134.581 27.6373 134.453 27.04C134.325 26.4213 134.261 25.7493 134.261 25.024V23.584C134.261 22.5813 134.474 21.6747 134.901 20.864C135.327 20.0533 135.946 19.36 136.757 18.784C137.567 18.208 138.549 17.76 139.701 17.44C140.853 17.12 142.143 16.96 143.573 16.96ZM155.688 39.648C155.688 38.9653 155.688 38.2827 155.688 37.6C155.688 36.896 155.688 36.2027 155.688 35.52C155.688 34.816 155.688 34.1227 155.688 33.44C155.688 32.736 155.688 32.0427 155.688 31.36C155.688 30.656 155.688 29.9627 155.688 29.28H155.208C155.101 29.28 154.995 29.28 154.888 29.28C154.781 29.28 154.675 29.28 154.568 29.28C154.483 29.28 154.387 29.28 154.28 29.28C154.173 29.28 154.067 29.28 153.96 29.28C153.875 29.28 153.789 29.248 153.704 29.184C153.64 29.0987 153.608 29.0133 153.608 28.928C153.608 27.84 153.608 26.752 153.608 25.664C153.608 24.576 153.608 23.488 153.608 22.4C154.205 22.4 154.803 22.4 155.4 22.4C155.997 22.4 156.595 22.4 157.192 22.4C157.789 22.4 158.376 22.4 158.952 22.4C159.549 22.4 160.147 22.4 160.744 22.4C161.341 22.4 161.939 22.4 162.536 22.4C162.6 22.4 162.653 22.4213 162.696 22.464C162.76 22.4853 162.803 22.528 162.824 22.592C162.867 22.6347 162.888 22.688 162.888 22.752C162.888 23.9467 162.888 25.152 162.888 26.368C162.888 27.5627 162.888 28.768 162.888 29.984C162.888 31.1787 162.888 32.384 162.888 33.6C162.888 34.7947 162.888 35.9893 162.888 37.184C162.888 37.4827 162.888 37.792 162.888 38.112C162.888 38.432 162.888 38.752 162.888 39.072C162.888 39.3707 162.888 39.68 162.888 40C161.757 40 160.616 40 159.464 40C158.312 40 157.171 40 156.04 40C155.955 40 155.869 39.968 155.784 39.904C155.72 39.8187 155.688 39.7333 155.688 39.648ZM155.208 14.4C155.656 14.4 156.232 14.4 156.936 14.4C157.64 14.4 158.387 14.4 159.176 14.4C159.987 14.4 160.744 14.4 161.448 14.4C162.152 14.4 162.728 14.4 163.176 14.4C163.283 14.4 163.368 14.432 163.432 14.496C163.496 14.56 163.528 14.6453 163.528 14.752V20.32C163.08 20.32 162.504 20.32 161.8 20.32C161.096 20.32 160.339 20.32 159.528 20.32C158.739 20.32 157.992 20.32 157.288 20.32C156.584 20.32 156.008 20.32 155.56 20.32C155.453 20.32 155.368 20.288 155.304 20.224C155.24 20.16 155.208 20.0747 155.208 19.968V14.4ZM165.436 22.4H179.644C179.75 22.4 179.836 22.432 179.9 22.496C179.964 22.56 179.996 22.6453 179.996 22.752C179.996 23.2427 179.996 23.904 179.996 24.736C179.996 25.5467 179.996 26.3573 179.996 27.168C179.996 27.9787 179.996 28.6293 179.996 29.12H165.788C165.745 29.12 165.702 29.1093 165.66 29.088C165.617 29.0667 165.574 29.0453 165.532 29.024C165.51 28.9813 165.489 28.9387 165.468 28.896C165.446 28.8533 165.436 28.8107 165.436 28.768C165.436 28.2773 165.436 27.6267 165.436 26.816C165.436 26.0053 165.436 25.1947 165.436 24.384C165.436 23.552 165.436 22.8907 165.436 22.4ZM179.996 33.28C179.996 34.3253 179.996 35.3813 179.996 36.448C179.996 37.5147 179.996 38.5813 179.996 39.648C179.996 39.7333 179.964 39.8187 179.9 39.904C179.836 39.968 179.75 40 179.644 40C179.324 40 178.993 40 178.652 40C178.332 40 178.012 40 177.692 40C177.372 40 177.041 40 176.7 40C176.38 40 176.06 40 175.74 40C174.46 40 173.329 39.84 172.348 39.52C171.388 39.2 170.577 38.7307 169.916 38.112C169.276 37.4933 168.796 36.7147 168.476 35.776C168.156 34.816 167.996 33.7173 167.996 32.48C167.996 31.52 167.996 30.5707 167.996 29.632C167.996 28.672 167.996 27.712 167.996 26.752C167.996 25.792 167.996 24.8427 167.996 23.904C167.996 22.944 167.996 21.984 167.996 21.024C167.996 20.448 167.996 19.8827 167.996 19.328C167.996 18.752 167.996 18.176 167.996 17.6C169.126 17.6 170.268 17.6 171.42 17.6C172.572 17.6 173.713 17.6 174.844 17.6C174.908 17.6 174.961 17.6213 175.004 17.664C175.068 17.6853 175.11 17.728 175.132 17.792C175.174 17.8347 175.196 17.888 175.196 17.952C175.196 19.1253 175.196 20.2987 175.196 21.472C175.196 22.624 175.196 23.7867 175.196 24.96C175.196 26.112 175.196 27.2747 175.196 28.448C175.196 29.6 175.196 30.7627 175.196 31.936C175.196 32.1493 175.217 32.3413 175.26 32.512C175.324 32.6827 175.42 32.8213 175.548 32.928C175.676 33.056 175.836 33.152 176.028 33.216C176.241 33.2587 176.486 33.28 176.764 33.28C177.041 33.28 177.318 33.28 177.596 33.28C177.894 33.28 178.182 33.28 178.46 33.28C178.737 33.28 179.014 33.28 179.292 33.28H179.996ZM191.1 21.76C192.934 21.76 194.492 22.0693 195.772 22.688C197.052 23.3067 198.022 24.192 198.684 25.344C199.345 26.4747 199.676 27.8507 199.676 29.472V32.608C199.676 32.672 199.654 32.736 199.612 32.8C199.59 32.8427 199.558 32.8853 199.516 32.928C199.473 32.9493 199.409 32.96 199.324 32.96H191.74C191.462 32.96 191.185 32.96 190.908 32.96C190.63 32.96 190.353 32.96 190.076 32.96H187.996V29.76H193.276C193.276 29.696 193.276 29.632 193.276 29.568C193.276 29.504 193.276 29.408 193.276 29.28C193.276 28.9173 193.233 28.6293 193.148 28.416C193.084 28.1813 192.977 27.9893 192.828 27.84C192.678 27.6693 192.486 27.552 192.252 27.488C192.017 27.4027 191.75 27.36 191.452 27.36C190.897 27.36 190.449 27.5307 190.108 27.872C189.766 28.192 189.596 28.6187 189.596 29.152V32.96C189.596 33.2587 189.628 33.5467 189.692 33.824C189.756 34.08 189.873 34.2933 190.044 34.464C190.236 34.656 190.545 34.8053 190.972 34.912C191.398 35.0187 192.102 35.0613 193.084 35.04C193.724 35.04 194.332 35.0187 194.908 34.976C195.484 34.912 196.07 34.816 196.668 34.688C197.265 34.56 197.894 34.4 198.556 34.208H199.196C199.196 35.0613 199.196 35.904 199.196 36.736C199.196 37.568 199.196 38.4107 199.196 39.264C199.196 39.3067 199.185 39.3493 199.164 39.392C199.164 39.4347 199.142 39.4773 199.1 39.52C198.886 39.7333 198.438 39.9253 197.756 40.096C197.094 40.2667 196.294 40.3947 195.356 40.48C194.417 40.5867 193.414 40.64 192.348 40.64C190.748 40.64 189.34 40.4693 188.124 40.128C186.908 39.808 185.884 39.328 185.052 38.688C184.22 38.0267 183.59 37.216 183.164 36.256C182.758 35.2747 182.556 34.144 182.556 32.864V29.536C182.556 28.384 182.748 27.3387 183.132 26.4C183.537 25.44 184.113 24.6187 184.86 23.936C185.606 23.232 186.502 22.6987 187.548 22.336C188.614 21.952 189.798 21.76 191.1 21.76ZM210.671 34.688C211.226 34.688 211.588 34.624 211.759 34.496C211.951 34.3467 212.047 34.176 212.047 33.984C212.047 33.8773 212.004 33.7707 211.919 33.664C211.855 33.5573 211.716 33.4613 211.503 33.376C211.311 33.2907 211.034 33.2267 210.671 33.184L208.815 32.928C207.258 32.7147 205.988 32.416 205.007 32.032C204.047 31.6267 203.332 31.0827 202.863 30.4C202.415 29.7173 202.191 28.8213 202.191 27.712C202.191 26.7733 202.394 25.9413 202.799 25.216C203.204 24.4907 203.802 23.872 204.591 23.36C205.38 22.8267 206.351 22.432 207.503 22.176C208.676 21.8987 210.01 21.76 211.503 21.76C212.676 21.76 213.69 21.8347 214.543 21.984C215.418 22.112 216.111 22.2613 216.623 22.432C217.156 22.6027 217.476 22.7413 217.583 22.848C217.604 22.8693 217.615 22.9013 217.615 22.944C217.636 22.9653 217.647 22.9973 217.647 23.04C217.668 23.0613 217.679 23.104 217.679 23.168C217.679 24.0853 217.679 24.992 217.679 25.888C217.679 26.784 217.679 27.6907 217.679 28.608H217.039C216.378 28.3947 215.727 28.2027 215.087 28.032C214.447 27.8613 213.775 27.7333 213.071 27.648C212.367 27.5413 211.578 27.488 210.703 27.488C210.234 27.488 209.839 27.52 209.519 27.584C209.199 27.6267 208.954 27.712 208.783 27.84C208.612 27.9467 208.527 28.0853 208.527 28.256C208.527 28.4267 208.58 28.576 208.687 28.704C208.794 28.8107 208.975 28.896 209.231 28.96C209.508 29.0027 209.86 29.056 210.287 29.12L212.207 29.344C213.572 29.4933 214.703 29.8027 215.599 30.272C216.516 30.7413 217.199 31.3387 217.647 32.064C218.095 32.7893 218.319 33.6213 218.319 34.56C218.319 35.9467 218.01 37.088 217.391 37.984C216.772 38.88 215.834 39.552 214.575 40C213.338 40.4267 211.77 40.64 209.871 40.64C209.06 40.64 208.228 40.608 207.375 40.544C206.522 40.48 205.722 40.3947 204.975 40.288C204.25 40.1813 203.642 40.0747 203.151 39.968C202.66 39.84 202.362 39.7333 202.255 39.648C202.234 39.6053 202.212 39.5733 202.191 39.552C202.191 39.5093 202.191 39.4667 202.191 39.424C202.191 38.4853 202.191 37.536 202.191 36.576C202.191 35.616 202.191 34.6667 202.191 33.728H202.831C203.45 33.92 204.036 34.08 204.591 34.208C205.146 34.336 205.722 34.432 206.319 34.496C206.916 34.56 207.567 34.6133 208.271 34.656C208.975 34.6773 209.775 34.688 210.671 34.688Z" fill="#D0D757"/>
</svg>
