<svg width="24" height="24" viewBox="0 0 24 24" fill="none" xmlns="http://www.w3.org/2000/svg">
<path fill-rule="evenodd" clip-rule="evenodd" d="M5.58579 11.5858C5.91238 11.2592 6.34994 11.1147 7 11.0507V8C7 6 8 3.5 12 3.5C15.8149 3.5 17 6 17 8V11.0507C17.6501 11.1147 18.0876 11.2592 18.4142 11.5858C19 12.1716 19 13.1144 19 15V16.5C19 18.3856 19 19.3284 18.4142 19.9142C17.8284 20.5 16.8856 20.5 15 20.5H9C7.11438 20.5 6.17157 20.5 5.58579 19.9142C5 19.3284 5 18.3856 5 16.5V15C5 13.1144 5 12.1716 5.58579 11.5858ZM15 8V11H9V8C9 7.29284 9.18129 6.69501 9.51851 6.30158C9.80428 5.96819 10.4406 5.5 12 5.5C13.4383 5.5 14.1023 5.95127 14.4318 6.32428C14.8069 6.74878 15 7.36103 15 8ZM10.25 14.75C10.25 13.9216 10.9216 13.25 11.75 13.25H12.25C13.0784 13.25 13.75 13.9216 13.75 14.75C13.75 15.3052 13.4484 15.79 13 16.0493V18H11V16.0493C10.5516 15.79 10.25 15.3052 10.25 14.75Z" fill="white"/>
</svg>
