<svg width="24" height="24" viewBox="0 0 24 24" fill="none" xmlns="http://www.w3.org/2000/svg">
<path d="M3.27652 6.91477C3 7.80656 3 9.07613 3 11V13C3 15.4411 3 16.8288 3.5649 17.728L9.15384 12.1391L3.27652 6.91477Z" fill="white"/>
<path d="M3.76012 6.00668L12 13.331L20.2399 6.00668C20.2023 5.96276 20.1628 5.92013 20.1213 5.87868C19.2426 5 17.8284 5 15 5H9C6.17157 5 4.75736 5 3.87868 5.87868C3.83723 5.92013 3.79774 5.96276 3.76012 6.00668Z" fill="white"/>
<path d="M20.7235 6.91477L14.8462 12.1391L20.4351 17.728C21 16.8288 21 15.4411 21 13V11C21 9.07613 21 7.80656 20.7235 6.91477Z" fill="white"/>
<path d="M19.728 18.4351L14.0975 12.8046L12 14.669L9.90254 12.8046L4.27201 18.4351C5.17117 19 6.55887 19 9 19H15C17.4411 19 18.8288 19 19.728 18.4351Z" fill="white"/>
</svg>
