<svg width="24" height="24" viewBox="0 0 24 24" fill="none" xmlns="http://www.w3.org/2000/svg">
<path d="M12.5 9.75C12.5 11.2688 11.2688 12.5 9.75 12.5C8.23122 12.5 7 11.2688 7 9.75C7 8.23122 8.23122 7 9.75 7C11.2688 7 12.5 8.23122 12.5 9.75Z" fill="white"/>
<path fill-rule="evenodd" clip-rule="evenodd" d="M14.8199 13.4057C15.5624 12.3777 16 11.115 16 9.75C16 6.29822 13.2018 3.5 9.75 3.5C6.29822 3.5 3.5 6.29822 3.5 9.75C3.5 13.2018 6.29822 16 9.75 16C11.115 16 12.3777 15.5624 13.4057 14.8199L18.2929 19.7071C18.6834 20.0976 19.3166 20.0976 19.7071 19.7071C20.0976 19.3166 20.0976 18.6834 19.7071 18.2929L14.8199 13.4057ZM9.75 14C12.0972 14 14 12.0972 14 9.75C14 7.40279 12.0972 5.5 9.75 5.5C7.40279 5.5 5.5 7.40279 5.5 9.75C5.5 12.0972 7.40279 14 9.75 14Z" fill="white"/>
</svg>
