<svg width="24" height="24" viewBox="0 0 24 24" fill="none" xmlns="http://www.w3.org/2000/svg">
<path d="M10 12.75C10 13.3023 9.55228 13.75 9 13.75C8.44772 13.75 8 13.3023 8 12.75C8 12.1977 8.44772 11.75 9 11.75C9.55228 11.75 10 12.1977 10 12.75Z" fill="white"/>
<path d="M13 12.75C13 13.3023 12.5523 13.75 12 13.75C11.4477 13.75 11 13.3023 11 12.75C11 12.1977 11.4477 11.75 12 11.75C12.5523 11.75 13 12.1977 13 12.75Z" fill="white"/>
<path d="M15 13.75C15.5523 13.75 16 13.3023 16 12.75C16 12.1977 15.5523 11.75 15 11.75C14.4477 11.75 14 12.1977 14 12.75C14 13.3023 14.4477 13.75 15 13.75Z" fill="white"/>
<path d="M9 16.75C9.55228 16.75 10 16.3023 10 15.75C10 15.1977 9.55228 14.75 9 14.75C8.44772 14.75 8 15.1977 8 15.75C8 16.3023 8.44772 16.75 9 16.75Z" fill="white"/>
<path d="M12 16.75C12.5523 16.75 13 16.3023 13 15.75C13 15.1977 12.5523 14.75 12 14.75C11.4477 14.75 11 15.1977 11 15.75C11 16.3023 11.4477 16.75 12 16.75Z" fill="white"/>
<path fill-rule="evenodd" clip-rule="evenodd" d="M8 4C8 3.44772 8.44772 3 9 3C9.55228 3 10 3.44772 10 4V5H14V4C14 3.44772 14.4477 3 15 3C15.5523 3 16 3.44772 16 4V5.01732C17.5534 5.06413 18.48 5.23738 19.1213 5.87868C20 6.75736 20 8.17157 20 11V14C20 16.8284 20 18.2426 19.1213 19.1213C18.2426 20 16.8284 20 14 20H10C7.17157 20 5.75736 20 4.87868 19.1213C4 18.2426 4 16.8284 4 14V11C4 8.17157 4 6.75736 4.87868 5.87868C5.51998 5.23738 6.44655 5.06413 8 5.01732V4ZM14 7H10C8.52925 7 7.62738 7.00425 6.97468 7.092C6.40099 7.16913 6.3052 7.27883 6.29383 7.29185L6.29289 7.29289L6.29185 7.29383C6.27883 7.3052 6.16913 7.40099 6.092 7.97468C6.05365 8.25996 6.03124 8.59283 6.01818 9H17.9818C17.9688 8.59283 17.9464 8.25996 17.908 7.97468C17.8309 7.40098 17.7212 7.30519 17.7082 7.29383L17.7071 7.29289L17.7062 7.29185C17.6948 7.27883 17.599 7.16913 17.0253 7.092C16.3726 7.00425 15.4708 7 14 7ZM6 11C6 10.8255 6.00006 10.659 6.00031 10.5H17.9997C17.9999 10.659 18 10.8255 18 11V14C18 15.4708 17.9958 16.3726 17.908 17.0253C17.8309 17.599 17.7212 17.6948 17.7082 17.7062L17.7071 17.7071L17.7062 17.7082C17.6948 17.7212 17.599 17.8309 17.0253 17.908C16.3726 17.9958 15.4708 18 14 18H10C8.52925 18 7.62738 17.9958 6.97468 17.908C6.40098 17.8309 6.3052 17.7212 6.29383 17.7082L6.29289 17.7071L6.29185 17.7062C6.27884 17.6948 6.16913 17.599 6.092 17.0253C6.00425 16.3726 6 15.4708 6 14V11Z" fill="white"/>
</svg>
