<svg width="24" height="24" viewBox="0 0 24 24" fill="none" xmlns="http://www.w3.org/2000/svg">
<path fill-rule="evenodd" clip-rule="evenodd" d="M9 12C10.933 12 12.5 10.433 12.5 8.5C12.5 6.567 10.933 5 9 5C7.067 5 5.5 6.567 5.5 8.5C5.5 10.433 7.067 12 9 12ZM9 10C9.82843 10 10.5 9.32843 10.5 8.5C10.5 7.67157 9.82843 7 9 7C8.17157 7 7.5 7.67157 7.5 8.5C7.5 9.32843 8.17157 10 9 10Z" fill="white"/>
<path fill-rule="evenodd" clip-rule="evenodd" d="M13.9753 17.5C13.7245 14.9733 11.5927 13 9 13C6.40733 13 4.27555 14.9733 4.02469 17.5C4.00836 17.6645 4 17.8313 4 18V19.5H14V18C14 17.8313 13.9916 17.6645 13.9753 17.5ZM9 15C7.5135 15 6.27952 16.0811 6.04148 17.5H11.9585C11.7205 16.0811 10.4865 15 9 15Z" fill="white"/>
<path d="M15 12C14.4632 12 13.9546 11.8791 13.4999 11.6632C13.8818 11.1209 14.1681 10.5066 14.3344 9.84463C14.535 9.94409 14.761 10 15 10C15.8284 10 16.5 9.32843 16.5 8.5C16.5 7.67157 15.8284 7 15 7C14.761 7 14.535 7.05591 14.3344 7.15537C14.1681 6.49339 13.8818 5.87906 13.4999 5.33684C13.9546 5.12086 14.4632 5 15 5C16.933 5 18.5 6.567 18.5 8.5C18.5 10.433 16.933 12 15 12Z" fill="white"/>
<path d="M16 19.5V18C16 17.8322 15.9941 17.6654 15.9823 17.5H17.9585C17.7386 16.1891 16.6685 15.1665 15.3347 15.0185C14.9982 14.3047 14.5448 13.657 13.9991 13.1002C14.3225 13.0345 14.6572 13 15 13C17.5927 13 19.7244 14.9733 19.9753 17.5C19.9916 17.6645 20 17.8313 20 18V19.5H16Z" fill="white"/>
</svg>
