<svg width="24" height="24" viewBox="0 0 24 24" fill="none" xmlns="http://www.w3.org/2000/svg">
<path d="M16.5 10H7.5V8H16.5V10Z" fill="white"/>
<path d="M16.5 14H7.5V12H16.5V14Z" fill="white"/>
<path fill-rule="evenodd" clip-rule="evenodd" d="M19.6213 4.87868C18.7426 4 17.3284 4 14.5 4H9.5C6.67157 4 5.25736 4 4.37868 4.87868C3.5 5.75736 3.5 7.17157 3.5 10V21L6.5 18H14.5C17.3284 18 18.7426 18 19.6213 17.1213C20.5 16.2426 20.5 14.8284 20.5 12V10C20.5 7.17157 20.5 5.75736 19.6213 4.87868ZM18.5 12V10C18.5 8.52925 18.4958 7.62738 18.408 6.97468C18.3309 6.40099 18.2212 6.3052 18.2082 6.29383L18.2071 6.29289L18.2062 6.29185C18.1948 6.27883 18.099 6.16913 17.5253 6.092C16.8726 6.00425 15.9708 6 14.5 6L9.5 6C8.02925 6 7.12738 6.00425 6.47468 6.092C5.90098 6.16913 5.80519 6.27884 5.79383 6.29185L5.79289 6.29289L5.79185 6.29383C5.77883 6.30519 5.66913 6.40098 5.592 6.97468C5.50425 7.62738 5.5 8.52925 5.5 10L5.5 16H14.5C15.9708 16 16.8726 15.9958 17.5253 15.908C18.099 15.8309 18.1948 15.7212 18.2062 15.7082L18.2071 15.7071L18.2082 15.7062C18.2212 15.6948 18.3309 15.599 18.408 15.0253C18.4958 14.3726 18.5 13.4708 18.5 12Z" fill="white"/>
</svg>
