<svg width="24" height="24" viewBox="0 0 24 24" fill="none" xmlns="http://www.w3.org/2000/svg">
<path fill-rule="evenodd" clip-rule="evenodd" d="M20.0955 11.0721C20.5768 8.04919 19.1642 5.83236 17.119 4.99629C15.442 4.31069 13.4316 4.60723 11.9999 6.02024C10.5683 4.60723 8.55802 4.31069 6.88095 4.99629C4.8358 5.83236 3.42324 8.04919 3.90448 11.0721C4.05165 11.9966 4.39742 13.6527 5.78546 15.2668C6.92177 16.5881 8.70394 17.9573 11.5027 19.7565L11.9999 20.0763L12.4973 19.7565C15.2961 17.9573 17.0782 16.5881 18.2145 15.2668C19.6026 13.6527 19.9483 11.9966 20.0955 11.0721ZM12 9.86894L11.2312 8.46538C10.337 6.83334 8.76915 6.53564 7.69055 6.97658C6.63412 7.40846 5.58575 8.61784 5.92292 10.7358C6.11776 11.9597 6.53388 12.8559 7.40756 13.8718C8.25172 14.8535 9.63109 15.9706 12 17.5283C14.3689 15.9706 15.7484 14.8534 16.5925 13.8718C17.4662 12.8559 17.8823 11.9597 18.0772 10.7358C18.4143 8.61784 17.366 7.40846 16.3095 6.97658C15.2309 6.53564 13.6631 6.83332 12.7689 8.46538L12 9.86894Z" fill="white"/>
</svg>
