<svg width="16" height="16" viewBox="0 0 16 16" fill="none" xmlns="http://www.w3.org/2000/svg">
<path d="M6.11 6.6913V2.25001H5.11V6.70079C4.57293 6.50248 4.19 5.98595 4.19 5.38V2.25H3.19001V5.37759L3.18994 5.39576C3.18994 6.32443 3.7164 7.13013 4.50051 7.53701H4.50383C4.69307 7.63175 4.89647 7.70239 5.11 7.74491V13.75H6.11V7.73537C7.19268 7.49779 8.00328 6.53378 8.005 5.38V2.25H7.00501V5.38C7.00501 5.97652 6.63392 6.48638 6.11 6.6913Z" fill="white"/>
<path fill-rule="evenodd" clip-rule="evenodd" d="M8.94 13.75H9.94L9.93999 10.242L12.81 8.8095V5.62001C12.81 3.75882 11.3012 2.25001 9.44001 2.25001H8.94V13.75ZM9.94 9.12403V3.30251L9.95578 3.30548C11.0168 3.5417 11.81 4.48862 11.81 5.6208V8.19053L9.94 9.12403Z" fill="white"/>
</svg>
