<svg width="24" height="24" viewBox="0 0 24 24" fill="none" xmlns="http://www.w3.org/2000/svg">
<path fill-rule="evenodd" clip-rule="evenodd" d="M17.9376 11.2738C17.8796 11.3438 17.8214 11.4141 17.7631 11.4848C17.3244 12.0168 16.8822 12.5713 16.5 13.2083C16.1178 12.5713 15.6756 12.0168 15.2369 11.4848C15.1784 11.4138 15.12 11.3433 15.0618 11.273C13.9953 9.98548 13 8.78393 13 6.79167C13 3.875 14.4583 3 16.5 3C18.5417 3 20 3.875 20 6.79167C20 8.78393 19.0041 9.98623 17.9376 11.2738ZM15 6.79167C15 5.63873 15.2865 5.32309 15.3551 5.25848C15.4454 5.17351 15.7186 5 16.5 5C17.2814 5 17.5546 5.17351 17.6449 5.25848C17.7135 5.32309 18 5.63873 18 6.79167C18 7.94876 17.5199 8.63679 16.5 9.87379C15.4801 8.63679 15 7.94876 15 6.79167Z" fill="white"/>
<path d="M11.0546 7.70306C11.2144 9.01198 11.7058 10.0546 12.2708 10.9176L8.30644 8.27466L6 9.29975V16.5536L7.5 15.6965L11.0629 17.7325L15 15.7639L17 16.7639C17.7631 14 19 13 19 13V20L15 18L11 20L7.5 18L4 20V8L8.5 6L11.0546 7.70306Z" fill="white"/>
</svg>
