<svg width="24" height="24" viewBox="0 0 24 24" fill="none" xmlns="http://www.w3.org/2000/svg">
<path d="M13.6318 11.883C13.6441 11.8635 13.6587 11.8385 13.6749 11.807C13.7786 11.5456 13.8561 11.2833 13.9093 11.0097C13.9579 10.7192 13.9939 10.347 13.9993 9.875C13.9939 9.40299 13.9579 9.03078 13.9093 8.74027C13.8561 8.46675 13.7786 8.20438 13.6749 7.94297C13.6587 7.9115 13.6441 7.88648 13.6318 7.86701C13.5986 7.81444 13.5762 7.79267 13.571 7.7878C13.5648 7.78197 13.2654 7.5 12 7.5C10.7346 7.5 10.4352 7.78195 10.429 7.78778C10.4238 7.79264 10.4013 7.81444 10.3681 7.86701C10.3558 7.88648 10.3412 7.9115 10.325 7.94297C10.2213 8.20438 10.1439 8.46675 10.0907 8.74026C10.0421 9.03078 10.0061 9.40299 10.0007 9.875C10.0061 10.347 10.0421 10.7192 10.0907 11.0097C10.1439 11.2833 10.2213 11.5456 10.325 11.807C10.3412 11.8385 10.3558 11.8635 10.3681 11.883C10.4013 11.9356 10.4238 11.9574 10.429 11.9622C10.4352 11.9681 10.7346 12.25 12 12.25C13.2654 12.25 13.5648 11.968 13.571 11.9622C13.5762 11.9573 13.5986 11.9356 13.6318 11.883Z" fill="white"/>
<path fill-rule="evenodd" clip-rule="evenodd" d="M14.4655 17.6823C14.0545 18.1785 13.6373 18.6822 13.2319 19.2104C12.8007 19.7723 12.3828 20.362 12 21C11.6172 20.362 11.1993 19.7723 10.7681 19.2104C10.3627 18.6822 9.9455 18.1785 9.53445 17.6823C7.70619 15.4751 6 13.4153 6 10C6 5 8.5 3.5 12 3.5C15.5 3.5 18 5 18 10C18 13.4153 16.2938 15.4751 14.4655 17.6823ZM8 10C8 7.8054 8.54688 6.81267 9.05823 6.3314C9.59122 5.82976 10.4894 5.5 12 5.5C13.5106 5.5 14.4088 5.82976 14.9418 6.3314C15.4531 6.81267 16 7.8054 16 10C16 12.618 14.777 14.171 12.9253 16.4065L12.8908 16.4481C12.6054 16.7926 12.3049 17.1554 12 17.5389C11.6951 17.1554 11.3946 16.7927 11.1093 16.4482L11.0747 16.4065C9.22298 14.171 8 12.618 8 10Z" fill="white"/>
</svg>
